<svg width="40" height="40" viewBox="0 0 40 40" fill="none" xmlns="http://www.w3.org/2000/svg">
<rect width="40" height="40" rx="8" fill="#1F2038"/>
<path d="M18.7801 13.56L9.2032 23.7116C9.10017 23.823 9.03288 23.9604 9.00934 24.1073C8.98579 24.2543 9.007 24.4046 9.07042 24.5404C9.13384 24.6761 9.23681 24.7916 9.36706 24.8731C9.49731 24.9546 9.64936 24.9986 9.8051 25H30.1973C30.3527 24.9977 30.5042 24.953 30.634 24.8712C30.7637 24.7894 30.8662 24.6739 30.9295 24.5383C30.9927 24.4028 31.014 24.2528 30.991 24.106C30.9679 23.9593 30.9013 23.8219 30.7992 23.7101L21.2223 13.4955C21.0648 13.334 20.8732 13.2063 20.6601 13.121C20.447 13.0357 20.2173 12.9946 19.9863 13.0006C19.7553 13.0065 19.5282 13.0594 19.3202 13.1556C19.1123 13.2517 18.9281 13.3906 18.7801 13.56Z" stroke="white" stroke-width="1.5" stroke-linecap="round" stroke-linejoin="round"/>
</svg>
