<svg width="20" height="20" viewBox="0 0 20 20" fill="none" xmlns="http://www.w3.org/2000/svg">
<path d="M6.87097 11.0865V9.86963C5.62405 10.1312 4.68475 11.2395 4.68475 12.563C4.68475 14.0804 5.91958 15.3153 7.43705 15.3153C8.76049 15.3153 9.86882 14.376 10.1304 13.129H8.91353C8.68514 13.7221 8.10931 14.1441 7.43705 14.1441C6.56529 14.1441 5.85594 13.4347 5.85594 12.563C5.85594 11.8907 6.27796 11.3149 6.87097 11.0865Z" fill="#C6EA4B"/>
<path d="M7.43705 7.46826C4.62776 7.46826 2.34238 9.75364 2.34238 12.5629C2.34238 15.3722 4.62776 17.6576 7.43705 17.6576C10.2463 17.6576 12.5317 15.3722 12.5317 12.5629C12.5317 12.4021 12.5243 12.2428 12.5095 12.0859L11.6678 13.129H11.3195C11.0447 15.0252 9.40855 16.4864 7.43705 16.4864C5.27347 16.4864 3.51357 14.7265 3.51357 12.5629C3.51357 10.5914 4.97482 8.95528 6.87097 8.68044V8.33221L7.91411 7.49051C7.75717 7.47568 7.59789 7.46826 7.43705 7.46826Z" fill="#C6EA4B"/>
<path d="M13.4757 10.8882C13.6237 11.4214 13.7029 11.9832 13.7029 12.563C13.7029 16.018 10.8921 18.8288 7.43705 18.8288C3.98204 18.8288 1.17119 16.018 1.17119 12.563C1.17119 9.10796 3.98204 6.2971 7.43705 6.2971C8.01679 6.2971 8.57857 6.37635 9.11185 6.52431L10.1905 5.65412C9.33867 5.31331 8.40913 5.12592 7.43705 5.12592C3.33633 5.12592 0 8.46224 0 12.563C0 16.6637 3.33633 20 7.43705 20C11.5378 20 14.8741 16.6637 14.8741 12.563C14.8741 11.5909 14.6867 10.6613 14.3459 9.8095L13.4757 10.8882Z" fill="#C6EA4B"/>
<path d="M18.1199 5.13177L16.5032 7.13529L18.5669 7.44995L20 6.01641L18.1199 5.13177Z" fill="#C6EA4B"/>
<path d="M14.8683 1.88015L13.9836 0L12.5501 1.43314L12.8647 3.49678L14.8683 1.88015Z" fill="#C6EA4B"/>
<path d="M8.04215 8.89208V11.1025V11.1294L7.02283 12.1488L7.85125 12.9772L8.87057 11.9579H8.89751H11.1079L17.1669 4.44781L15.5522 2.83313L8.04215 8.89208Z" fill="#C6EA4B"/>
</svg>
