<svg width="32" height="32" viewBox="0 0 32 32" fill="none" xmlns="http://www.w3.org/2000/svg">
<g clip-path="url(#clip0_765_12004)">
<path d="M27.9126 19.1494L24.163 15.3997C23.9833 15.2201 23.7377 15.125 23.4996 15.125C22.8614 15.125 9.13865 15.125 8.50034 15.125C8.24328 15.125 8.00391 15.2328 7.83697 15.3997L4.08731 19.1494C3.71875 19.5175 3.725 20.1137 4.08731 20.4755L15.3371 31.7253C15.7272 32.1049 16.301 32.0784 16.6629 31.7253L27.9127 20.4755C28.2862 20.1025 28.27 19.5063 27.9126 19.1494ZM17.4866 18.875H14.5133L16 17.3883L17.4866 18.875ZM21.2366 17L19.7499 18.4867L18.2633 17H21.2366ZM13.7367 17L12.25 18.4867L10.7633 17H13.7367ZM8.50003 17.3883L9.9867 18.875H7.01335L8.50003 17.3883ZM7.01335 20.75H11.5743L13.8547 27.5913L7.01335 20.75ZM16 28.0977L13.5507 20.75H18.4492L16 28.0977ZM18.1452 27.5913L20.4257 20.75H24.9866L18.1452 27.5913ZM22.0132 18.875L23.4999 17.3883L24.9866 18.875H22.0132Z" fill="#2430FF"/>
<path d="M16 9.37493C15.6573 9.37493 15.342 9.18793 15.1775 8.88731L13.9835 6.70407L11.8002 5.50996C11.4996 5.34552 11.3126 5.03015 11.3126 4.68746C11.3126 4.34478 11.4996 4.02941 11.8002 3.86497L13.9835 2.67092L15.1775 0.487684C15.342 0.186999 15.6573 0 16 0C16.3427 0 16.6581 0.186999 16.8225 0.487621L18.0166 2.67085L20.1998 3.86491C20.5005 4.02934 20.6875 4.34472 20.6875 4.6874C20.6875 5.03009 20.5005 5.34546 20.1998 5.50989L18.0166 6.70395L16.8225 8.88718C16.6581 9.18793 16.3427 9.37493 16 9.37493ZM14.2039 4.68746L15.1241 5.19077C15.2815 5.27677 15.4108 5.40615 15.4968 5.56339L16.0001 6.48364L16.5034 5.56339C16.5894 5.40608 16.7187 5.27677 16.8761 5.19077L17.7962 4.68746L16.876 4.18415C16.7186 4.09816 16.5893 3.96878 16.5033 3.81153L16 2.89129L15.4967 3.81153C15.4107 3.96884 15.2813 4.09816 15.124 4.18415L14.2039 4.68746Z" fill="#2430FF"/>
<path d="M4.68759 15.0624C4.3449 15.0624 4.02953 14.8754 3.86509 14.5748L2.67104 12.3916L0.487806 11.1975C0.187121 11.033 0.00012207 10.7176 0.00012207 10.375C0.00012207 10.0323 0.187121 9.71691 0.487806 9.55247L2.67104 8.35842L3.86509 6.17518C4.02953 5.8745 4.3449 5.6875 4.68759 5.6875C5.03027 5.6875 5.34564 5.8745 5.51008 6.17512L6.70413 8.35835L8.88737 9.55241C9.18805 9.71684 9.37505 10.0322 9.37505 10.3749C9.37505 10.7176 9.18805 11.033 8.88737 11.1974L6.70413 12.3914L5.51008 14.5747C5.34564 14.8754 5.03027 15.0624 4.68759 15.0624ZM2.89141 10.375L3.81165 10.8783C3.96903 10.9643 4.09834 11.0936 4.18434 11.2509L4.68765 12.1711L5.19096 11.2509C5.27696 11.0936 5.40627 10.9643 5.56364 10.8783L6.48376 10.375L5.56352 9.87165C5.40614 9.78566 5.27683 9.65628 5.19083 9.49903L4.68752 8.57879L4.18421 9.49903C4.09822 9.65634 3.9689 9.78566 3.81153 9.87165L2.89141 10.375Z" fill="#2430FF"/>
<path d="M27.3124 15.0623C26.9697 15.0623 26.6543 14.8753 26.4899 14.5747L25.2959 12.3914L23.1126 11.1974C22.8119 11.033 22.6249 10.7176 22.6249 10.3749C22.6249 10.0322 22.8119 9.71684 23.1126 9.55241L25.2959 8.35835L26.4899 6.17512C26.6543 5.87444 26.9697 5.6875 27.3124 5.6875C27.6551 5.6875 27.9705 5.8745 28.1349 6.17512L29.3289 8.35835L31.5122 9.55241C31.8129 9.71684 31.9999 10.0322 31.9999 10.3749C31.9999 10.7176 31.8129 11.033 31.5122 11.1974L29.3289 12.3914L28.1349 14.5747C27.9705 14.8753 27.6551 15.0623 27.3124 15.0623ZM25.5162 10.3748L26.4365 10.8781C26.5938 10.9641 26.7232 11.0935 26.8092 11.2508L27.3125 12.171L27.8158 11.2508C27.9018 11.0935 28.0311 10.9641 28.1885 10.8781L29.1086 10.3748L28.1883 9.87153C28.031 9.78553 27.9016 9.65616 27.8156 9.49891L27.3123 8.57867L26.809 9.49891C26.723 9.65622 26.5937 9.78553 26.4363 9.87153L25.5162 10.3748Z" fill="#2430FF"/>
</g>
<defs>
<clipPath id="clip0_765_12004">
<rect width="32" height="32" fill="white"/>
</clipPath>
</defs>
</svg>
